<svg width="151" height="107" viewBox="0 0 151 107" fill="none" xmlns="http://www.w3.org/2000/svg">
<path fill-rule="evenodd" clip-rule="evenodd" d="M18.5994 78.2594H132.329C134.679 78.2594 136.616 80.1826 136.616 82.5552V86.5275C136.616 88.8821 134.697 90.8233 132.329 90.8233H18.5994C16.2498 90.8233 14.3127 88.9001 14.3127 86.5275V82.5552C14.3127 80.2006 16.2319 78.2594 18.5994 78.2594Z" fill="#A7A9AC"/>
<path fill-rule="evenodd" clip-rule="evenodd" d="M39.2969 18.2258H112.815C122.411 18.2258 130.248 26.0805 130.248 35.6966V58.6855C130.248 68.3017 122.411 76.1564 112.815 76.1564H39.2969C29.7014 76.1564 21.8635 68.3017 21.8635 58.6855V35.6966C21.8635 26.0805 29.7014 18.2258 39.2969 18.2258Z" fill="#2E3192"/>
<path d="M132.903 77.81H19.1912C16.8237 77.81 14.9045 79.7333 14.9045 82.1058V86.0781C14.9045 88.4506 16.8237 90.3739 19.1912 90.3739H132.903C135.27 90.3739 137.19 88.4506 137.19 86.0781V82.1058C137.19 79.7333 135.27 77.81 132.903 77.81Z" fill="#F1F1F1"/>
<path d="M132.903 77.81H19.1912C16.8237 77.81 14.9045 79.7333 14.9045 82.1058V86.0781C14.9045 88.4506 16.8237 90.3739 19.1912 90.3739H132.903C135.27 90.3739 137.19 88.4506 137.19 86.0781V82.1058C137.19 79.7333 135.27 77.81 132.903 77.81Z" stroke="#D1D3D4" stroke-miterlimit="22.9"/>
<path d="M31.9074 29.5495H13.3799V38.5186H31.9074V29.5495Z" fill="#FFF200"/>
<path d="M31.9074 42.4549H13.3799V51.424H31.9074V42.4549Z" fill="#00A651"/>
<path d="M31.9074 55.3783H13.3799V64.3474H31.9074V55.3783Z" fill="#ED1C24"/>
<path d="M137.62 29.5495H119.093V38.5186H137.62V29.5495Z" fill="#FFF200"/>
<path d="M137.62 42.4549H119.093V51.424H137.62V42.4549Z" fill="#00A651"/>
<path d="M137.62 55.3783H119.093V64.3474H137.62V55.3783Z" fill="#ED1C24"/>
<path d="M91.2564 59.5303V28.8844H113.891V34.061H97.4442V40.8732H112.725V46.0497H97.4442V54.3538H114.483V59.5303H91.2564ZM72.0474 59.5303V34.061H62.9899V28.8844H87.2389V34.061H78.2352V59.5303H72.0474ZM36.6963 59.5303V28.8844H59.331V34.061H42.8841V40.8732H58.1652V46.0497H42.8841V54.3538H59.9229V59.5303H36.6963Z" fill="#F1F1F1"/>
<path d="M113.819 71.8786V67.8523H114.644V71.1955H116.671V71.8786H113.819ZM111.864 70.2609L111.308 68.7511L110.77 70.2609H111.882H111.864ZM113.353 71.8786H112.474L112.116 70.9619H110.483L110.143 71.8786H109.282L110.86 67.8164H111.721L113.335 71.8786H113.353ZM105.623 67.8164H106.448V70.0092C106.448 70.3508 106.448 70.5844 106.484 70.6923C106.52 70.854 106.609 70.9978 106.735 71.0877C106.86 71.1955 107.04 71.2315 107.273 71.2315C107.506 71.2315 107.668 71.1776 107.793 71.0877C107.919 70.9978 107.972 70.872 108.008 70.7282C108.026 70.5844 108.044 70.3508 108.044 70.0452V67.7984H108.869V69.9373C108.869 70.4226 108.851 70.7642 108.797 70.9798C108.762 71.1776 108.672 71.3573 108.546 71.4831C108.421 71.6269 108.277 71.7348 108.08 71.8067C107.883 71.8965 107.632 71.9325 107.309 71.9325C106.986 71.9325 106.627 71.8965 106.43 71.8067C106.233 71.7168 106.071 71.6089 105.964 71.4651C105.856 71.3214 105.766 71.1776 105.73 71.0158C105.677 70.7821 105.659 70.4406 105.659 69.9913V67.8164H105.623ZM102.359 68.4994V71.1955H102.968C103.202 71.1955 103.363 71.1955 103.453 71.1596C103.578 71.1236 103.704 71.0697 103.776 70.9978C103.865 70.9259 103.937 70.7821 103.991 70.6024C104.045 70.4226 104.08 70.171 104.08 69.8655C104.08 69.5599 104.045 69.3083 103.991 69.1465C103.937 68.9847 103.865 68.8409 103.758 68.7511C103.65 68.6612 103.524 68.5893 103.381 68.5533C103.273 68.5354 103.04 68.5174 102.717 68.5174H102.359V68.4994ZM101.534 67.8164H103.022C103.363 67.8164 103.614 67.8344 103.793 67.8883C104.027 67.9602 104.242 68.086 104.403 68.2657C104.565 68.4455 104.708 68.6612 104.798 68.9308C104.888 69.1824 104.923 69.506 104.923 69.8834C104.923 70.2609 104.888 70.5125 104.798 70.7462C104.69 71.0338 104.547 71.2854 104.367 71.4651C104.224 71.6089 104.027 71.7168 103.793 71.7887C103.614 71.8426 103.381 71.8786 103.076 71.8786H101.534V67.8164ZM99.5965 70.2609L99.0405 68.7511L98.5024 70.2609H99.6144H99.5965ZM101.103 71.8786H100.224L99.8655 70.9619H98.2334L97.8926 71.8786H97.0317L98.61 67.8164H99.471L101.085 71.8786H101.103ZM95.3278 71.8786V68.4994H94.1261V67.8164H97.3366V68.4994H96.1349V71.8786H95.3099H95.3278ZM90.4314 70.5664L91.2206 70.4945C91.2744 70.7642 91.3641 70.9619 91.5075 71.0877C91.651 71.2135 91.8483 71.2674 92.0994 71.2674C92.3505 71.2674 92.5657 71.2135 92.6913 71.1057C92.8168 70.9978 92.8886 70.872 92.8886 70.7102C92.8886 70.5485 92.8527 70.5305 92.7989 70.4586C92.7451 70.3867 92.6375 70.3328 92.5119 70.2789C92.4223 70.2429 92.207 70.189 91.8663 70.0991C91.4358 69.9913 91.1309 69.8475 90.9515 69.7037C90.7004 69.488 90.5749 69.2004 90.5749 68.8769C90.5749 68.5533 90.6287 68.4814 90.7542 68.3017C90.8798 68.122 91.0412 67.9782 91.2564 67.8883C91.4717 67.7984 91.7407 67.7445 92.0456 67.7445C92.5478 67.7445 92.9424 67.8523 93.1935 68.086C93.4446 68.3197 93.5881 68.6073 93.606 68.9847L92.781 69.0207C92.7451 68.805 92.6734 68.6612 92.5657 68.5713C92.4581 68.4814 92.2788 68.4275 92.0456 68.4275C91.8125 68.4275 91.6331 68.4814 91.4896 68.5713C91.3999 68.6432 91.3641 68.7151 91.3641 68.8229C91.3641 68.9308 91.3999 69.0027 91.4896 69.0746C91.5972 69.1645 91.8483 69.2543 92.2429 69.3442C92.6375 69.4341 92.9245 69.5419 93.1217 69.6318C93.319 69.7396 93.4625 69.8655 93.5701 70.0452C93.6778 70.2249 93.7316 70.4406 93.7316 70.6923C93.7316 70.9439 93.6598 71.1416 93.5343 71.3393C93.4087 71.537 93.2294 71.6988 92.9962 71.7887C92.763 71.8965 92.4581 71.9325 92.1173 71.9325C91.5972 71.9325 91.2206 71.8067 90.9336 71.573C90.6646 71.3393 90.5031 70.9978 90.4493 70.5305L90.4314 70.5664ZM86.8622 71.8786V67.8164H89.8575V68.4994H87.6873V69.3981H89.714V70.0811H87.6873V71.1776H89.9471V71.8606H86.8622V71.8786ZM83.5621 70.2609L83.0061 68.7511L82.468 70.2609H83.58H83.5621ZM85.0686 71.8786H84.1898L83.8311 70.9619H82.199L81.8582 71.8786H80.9973L82.5756 67.8164H83.4365L85.0507 71.8786H85.0686ZM79.9211 70.3687L80.7103 70.6204C80.5847 71.0697 80.3875 71.3932 80.1005 71.6089C79.8135 71.8246 79.4548 71.9325 79.0243 71.9325C78.5939 71.9325 78.0379 71.7527 77.6971 71.3753C77.3563 71.0158 77.177 70.4945 77.177 69.8655C77.177 69.2364 77.3563 68.6612 77.6971 68.2837C78.0379 67.9063 78.5042 67.7265 79.0782 67.7265C79.6521 67.7265 79.9749 67.8703 80.2798 68.1759C80.4592 68.3556 80.6027 68.6073 80.6924 68.9308L79.8853 69.1285C79.8315 68.9128 79.7418 68.751 79.5804 68.6252C79.4189 68.4994 79.2396 68.4455 79.0243 68.4455C78.8091 68.4455 78.4863 68.5533 78.289 68.769C78.1096 68.9847 78.002 69.3262 78.002 69.8115C78.002 70.2968 78.0917 70.6923 78.271 70.9079C78.4504 71.1236 78.7015 71.2315 78.9885 71.2315C79.2754 71.2315 79.401 71.1596 79.5445 71.0158C79.7059 70.872 79.8135 70.6563 79.8853 70.3687H79.9211ZM75.7421 71.8786V67.8164H76.5672V71.8786H75.7421ZM71.6707 71.8786V67.8164H72.4599L74.1279 70.5305V67.8164H74.8812V71.8786H74.0562L72.4061 69.2184V71.8786H71.6528H71.6707ZM70.1821 70.3687L70.9713 70.6204C70.8457 71.0697 70.6484 71.3932 70.3614 71.6089C70.0745 71.8246 69.7158 71.9325 69.2853 71.9325C68.8548 71.9325 68.2988 71.7527 67.9581 71.3753C67.6173 71.0158 67.4379 70.4945 67.4379 69.8655C67.4379 69.2364 67.6173 68.6612 67.9581 68.2837C68.2988 67.9063 68.7652 67.7265 69.3391 67.7265C69.9131 67.7265 70.2359 67.8703 70.5408 68.1759C70.7202 68.3556 70.8636 68.6073 70.9533 68.9308L70.1462 69.1285C70.0924 68.9128 70.0027 68.751 69.8413 68.6252C69.6799 68.4994 69.5005 68.4455 69.2853 68.4455C69.0701 68.4455 68.7472 68.5533 68.5499 68.769C68.3706 68.9847 68.263 69.3262 68.263 69.8115C68.263 70.2968 68.3527 70.6923 68.532 70.9079C68.7114 71.1236 68.9625 71.2315 69.2494 71.2315C69.5364 71.2315 69.662 71.1596 69.8054 71.0158C69.9669 70.872 70.0745 70.6563 70.1462 70.3687H70.1821ZM64.9269 67.4389L65.3036 66.6121H66.1645L65.3933 67.4389H64.909H64.9269ZM63.8149 71.8786V67.8164H66.8102V68.4994H64.64V69.3981H66.6667V70.0811H64.64V71.1776H66.8999V71.8606H63.8149V71.8786ZM61.2681 71.8786V68.4994H60.0664V67.8164H63.2769V68.4994H62.0752V71.8786H61.2501H61.2681ZM57.0711 70.2609L56.5151 68.7511L55.9771 70.2609H57.0891H57.0711ZM58.5598 71.8786H57.681L57.3222 70.9619H55.6901L55.3493 71.8786H54.4884L56.0668 67.8164H56.9277L58.5419 71.8786H58.5598ZM51.4752 71.8786V67.8523H52.3003V71.1955H54.327V71.8786H51.4752ZM47.7267 69.8475C47.7267 70.3148 47.8343 70.6563 48.0495 70.89C48.2648 71.1236 48.5338 71.2495 48.8566 71.2495C49.1795 71.2495 49.4485 71.1236 49.6637 70.89C49.879 70.6563 49.9866 70.2968 49.9866 69.8295C49.9866 69.3622 49.879 69.0207 49.6817 68.787C49.4844 68.5533 49.2153 68.4455 48.8746 68.4455C48.5338 68.4455 48.2648 68.5533 48.0495 68.787C47.8343 69.0207 47.7446 69.3622 47.7446 69.8295L47.7267 69.8475ZM46.8837 69.8655C46.8837 69.452 46.9375 69.1105 47.0631 68.8229C47.1527 68.6073 47.2783 68.4275 47.4397 68.2657C47.6011 68.104 47.7805 67.9782 47.9599 67.9063C48.2109 67.7984 48.4979 67.7445 48.8387 67.7445C49.4306 67.7445 49.9148 67.9242 50.2735 68.3017C50.6323 68.6792 50.8116 69.1824 50.8116 69.8475C50.8116 70.5125 50.6323 71.0158 50.2735 71.3933C49.9148 71.7707 49.4485 71.9504 48.8387 71.9504C48.2289 71.9504 47.7626 71.7707 47.4038 71.3933C47.0451 71.0158 46.8658 70.5125 46.8658 69.8655H46.8837ZM45.5565 70.3687L46.3456 70.6204C46.2201 71.0697 46.0228 71.3932 45.7358 71.6089C45.4489 71.8246 45.0902 71.9325 44.6597 71.9325C44.2292 71.9325 43.6732 71.7527 43.3325 71.3753C42.9917 71.0158 42.8123 70.4945 42.8123 69.8655C42.8123 69.2364 42.9917 68.6612 43.3325 68.2837C43.6732 67.9063 44.1396 67.7265 44.7135 67.7265C45.2874 67.7265 45.6103 67.8703 45.9152 68.1759C46.0945 68.3556 46.238 68.6073 46.3277 68.9308L45.5206 69.1285C45.4668 68.9128 45.3771 68.751 45.2157 68.6252C45.0543 68.4994 44.8749 68.4455 44.6597 68.4455C44.4445 68.4455 44.1216 68.5533 43.9243 68.769C43.745 68.9847 43.6374 69.3262 43.6374 69.8115C43.6374 70.2968 43.727 70.6923 43.9064 70.9079C44.0858 71.1236 44.3369 71.2315 44.6238 71.2315C44.9108 71.2315 45.0363 71.1596 45.1798 71.0158C45.3412 70.872 45.4489 70.6563 45.5206 70.3687H45.5565ZM38.992 70.5664L39.7812 70.4945C39.835 70.7642 39.9247 70.9619 40.0682 71.0877C40.2117 71.2135 40.409 71.2674 40.6601 71.2674C40.9112 71.2674 41.1264 71.2135 41.2519 71.1057C41.3775 70.9978 41.4492 70.872 41.4492 70.7102C41.4492 70.5485 41.4134 70.5305 41.3595 70.4586C41.3057 70.3867 41.1981 70.3328 41.0726 70.2789C40.9829 70.2429 40.7677 70.189 40.4269 70.0991C39.9964 69.9913 39.6915 69.8475 39.5122 69.7037C39.2611 69.488 39.1355 69.2004 39.1355 68.8769C39.1355 68.5533 39.1893 68.4814 39.3149 68.3017C39.4404 68.122 39.6019 67.9782 39.8171 67.8883C40.0323 67.7984 40.3013 67.7445 40.6062 67.7445C41.1084 67.7445 41.503 67.8523 41.7541 68.086C42.0052 68.3197 42.1487 68.6073 42.1487 68.9847L41.3237 69.0207C41.2878 68.805 41.2161 68.6612 41.1084 68.5713C41.0008 68.4814 40.8215 68.4275 40.5883 68.4275C40.3551 68.4275 40.1758 68.4814 40.0323 68.5713C39.9426 68.6432 39.9068 68.7151 39.9068 68.8229C39.9068 68.9308 39.9426 69.0027 40.0323 69.0746C40.1399 69.1645 40.391 69.2543 40.7856 69.3442C41.1802 69.4341 41.4672 69.5419 41.6644 69.6318C41.8617 69.7396 42.0052 69.8655 42.1128 70.0452C42.2205 70.2249 42.2743 70.4406 42.2743 70.6923C42.2743 70.9439 42.2025 71.1416 42.077 71.3393C41.9514 71.537 41.7721 71.6988 41.5389 71.7887C41.3057 71.8965 41.0008 71.9325 40.6601 71.9325C40.1399 71.9325 39.7633 71.8067 39.4763 71.573C39.2073 71.3393 39.0458 70.9978 38.992 70.5305V70.5664ZM35.4229 71.8786V67.8164H38.4181V68.4994H36.2479V69.3981H38.2746V70.0811H36.2479V71.1776H38.5078V71.8606H35.4229V71.8786Z" fill="#F1F1F1"/>
<path d="M42.8841 87.8036V81.5666H44.8929C45.6642 81.5666 46.1484 81.6026 46.3816 81.6565C46.7403 81.7463 47.0273 81.962 47.2784 82.2676C47.5295 82.5732 47.6371 82.9866 47.6371 83.4719C47.6371 83.9572 47.5653 84.1729 47.4219 84.4425C47.2784 84.7121 47.099 84.9098 46.9017 85.0536C46.6865 85.1974 46.4713 85.3052 46.256 85.3412C45.9511 85.3951 45.5207 85.431 44.9467 85.431H44.1217V87.7857H42.8662L42.8841 87.8036ZM44.1396 82.6271V84.3885H44.8212C45.3234 84.3885 45.6462 84.3526 45.8077 84.2987C45.9691 84.2268 46.1126 84.1369 46.2022 83.9931C46.2919 83.8493 46.3457 83.6876 46.3457 83.5078C46.3457 83.3281 46.274 83.0944 46.1484 82.9506C46.0229 82.8068 45.8435 82.717 45.6462 82.681C45.5027 82.6451 45.1978 82.6451 44.7495 82.6451H44.1396V82.6271Z" fill="#2E3192"/>
<path d="M48.4263 84.7301C48.4263 84.101 48.5159 83.5617 48.7132 83.1304C48.8567 82.8068 49.054 82.5372 49.2872 82.2676C49.5383 82.016 49.8073 81.8362 50.0943 81.7104C50.4889 81.5486 50.9193 81.4588 51.4395 81.4588C52.3542 81.4588 53.0895 81.7463 53.6455 82.3215C54.2015 82.8967 54.4706 83.6876 54.4706 84.6941C54.4706 85.7007 54.2015 86.4915 53.6455 87.0487C53.1075 87.6239 52.3721 87.8935 51.4574 87.8935C50.5427 87.8935 49.7894 87.6059 49.2513 87.0487C48.7132 86.4915 48.4263 85.7007 48.4263 84.7121V84.7301ZM49.7176 84.6941C49.7176 85.3951 49.8791 85.9343 50.2019 86.2938C50.5247 86.6533 50.9373 86.833 51.4395 86.833C51.9416 86.833 52.3542 86.6533 52.677 86.2938C52.9999 85.9343 53.1613 85.3951 53.1613 84.6761C53.1613 83.9572 52.9999 83.4359 52.6949 83.0764C52.39 82.717 51.9596 82.5552 51.4574 82.5552C50.9552 82.5552 50.5247 82.7349 50.2019 83.0944C49.8791 83.4539 49.7356 83.9931 49.7356 84.6941H49.7176Z" fill="#2E3192"/>
<path d="M55.4392 87.8036V81.5666H58.0757C58.7393 81.5666 59.2236 81.6205 59.5285 81.7284C59.8334 81.8362 60.0666 82.0339 60.2459 82.3215C60.4253 82.6091 60.515 82.9326 60.515 83.3101C60.515 83.6876 60.3715 84.1549 60.1025 84.4604C59.8334 84.766 59.4209 84.9637 58.8649 85.0356C59.1339 85.1974 59.3671 85.3771 59.5285 85.5569C59.6899 85.7366 59.941 86.0781 60.2459 86.5634L60.9992 87.7857H59.4926L58.5779 86.4376C58.2551 85.9523 58.0399 85.6467 57.9143 85.5209C57.7888 85.3951 57.6632 85.3052 57.5377 85.2693C57.4121 85.2154 57.1969 85.1974 56.9099 85.1974H56.6588V87.8036H55.4033H55.4392ZM56.6947 84.2088H57.6273C58.2371 84.2088 58.6138 84.1908 58.7573 84.1369C58.9008 84.083 59.0263 83.9931 59.116 83.8673C59.2057 83.7415 59.2415 83.5797 59.2415 83.4C59.2415 83.2202 59.1877 83.0225 59.0801 82.8967C58.9725 82.7709 58.8111 82.681 58.6138 82.6451C58.5062 82.6451 58.2013 82.6271 57.6991 82.6271H56.7126V84.2088H56.6947Z" fill="#2E3192"/>
<path d="M63.0976 87.8036V82.6271H61.2502V81.5666H66.1825V82.6271H64.3352V87.8036H63.0797H63.0976Z" fill="#2E3192"/>
<path d="M66.595 84.7301C66.595 84.101 66.6846 83.5617 66.8819 83.1304C67.0254 82.8068 67.2227 82.5372 67.4559 82.2676C67.707 82.016 67.976 81.8362 68.263 81.7104C68.6576 81.5486 69.088 81.4588 69.6082 81.4588C70.5229 81.4588 71.2582 81.7463 71.8142 82.3215C72.3702 82.8967 72.6393 83.6876 72.6393 84.6941C72.6393 85.7007 72.3702 86.4915 71.8142 87.0487C71.2762 87.6239 70.5408 87.8935 69.6261 87.8935C68.7114 87.8935 67.9581 87.6059 67.42 87.0487C66.8819 86.4915 66.595 85.7007 66.595 84.7121V84.7301ZM67.8863 84.6941C67.8863 85.3951 68.0478 85.9343 68.3706 86.2938C68.6934 86.6533 69.106 86.833 69.6082 86.833C70.1104 86.833 70.5229 86.6533 70.8457 86.2938C71.1686 85.9343 71.33 85.3951 71.33 84.6761C71.33 83.9572 71.1686 83.4359 70.8636 83.0764C70.5587 82.717 70.1283 82.5552 69.6261 82.5552C69.1239 82.5552 68.6934 82.7349 68.3706 83.0944C68.0478 83.4539 67.9043 83.9931 67.9043 84.6941H67.8863Z" fill="#2E3192"/>
<path d="M76.0111 81.5846H78.3069C78.827 81.5846 79.2216 81.6205 79.4906 81.7104C79.8493 81.8182 80.1722 82.016 80.4233 82.2856C80.6744 82.5552 80.8896 82.8967 81.0151 83.2921C81.1586 83.6876 81.2124 84.1729 81.2124 84.766C81.2124 85.3591 81.1407 85.7186 81.0151 86.0961C80.8537 86.5454 80.6385 86.9229 80.3515 87.1925C80.1363 87.4082 79.8314 87.57 79.4727 87.6958C79.2036 87.7857 78.827 87.8216 78.3607 87.8216H75.9932V81.5846H76.0111ZM77.2666 82.6271V86.7611H78.1992C78.558 86.7611 78.8091 86.7432 78.9525 86.7072C79.1498 86.6533 79.3292 86.5634 79.4547 86.4556C79.5803 86.3297 79.7058 86.132 79.7776 85.8624C79.8673 85.5748 79.9031 85.1974 79.9031 84.7301C79.9031 84.2627 79.8673 83.8853 79.7776 83.6157C79.6879 83.346 79.5803 83.1483 79.4189 83.0045C79.2574 82.8607 79.0781 82.7709 78.8449 82.717C78.6656 82.681 78.3248 82.663 77.8226 82.663H77.2666V82.6271Z" fill="#2E3192"/>
<path d="M82.2527 87.8036V81.5666H83.5082V87.8036H82.2527Z" fill="#2E3192"/>
<path d="M87.5795 85.5209V84.4784H90.2878V86.9588C90.0188 87.2105 89.6421 87.4441 89.1399 87.6239C88.6377 87.8036 88.1355 87.9115 87.6154 87.9115C87.0953 87.9115 86.3958 87.7677 85.9115 87.4981C85.4273 87.2285 85.0686 86.833 84.8175 86.3297C84.5664 85.8265 84.4587 85.2693 84.4587 84.6761C84.4587 84.083 84.6022 83.4539 84.8713 82.9506C85.1403 82.4473 85.5349 82.0519 86.055 81.7823C86.4496 81.5666 86.9518 81.4767 87.5437 81.4767C88.1355 81.4767 88.9247 81.6385 89.3552 81.962C89.7856 82.2856 90.0726 82.7349 90.1981 83.3101L88.9426 83.5438C88.853 83.2382 88.6916 83.0045 88.4405 82.8248C88.2073 82.645 87.9024 82.5552 87.5437 82.5552C86.9877 82.5552 86.5572 82.7349 86.2344 83.0764C85.9115 83.4179 85.7501 83.9392 85.7501 84.6222C85.7501 85.3052 85.9115 85.9163 86.2344 86.2938C86.5572 86.6713 86.9877 86.851 87.5257 86.851C88.0638 86.851 88.0459 86.7971 88.3149 86.6892C88.5839 86.5814 88.7992 86.4556 88.9965 86.3118V85.5209H87.5616H87.5795Z" fill="#2E3192"/>
<path d="M91.418 87.8036V81.5666H92.6735V87.8036H91.418Z" fill="#2E3192"/>
<path d="M95.2561 87.8036V82.6271H93.4087V81.5666H98.341V82.6271H96.4936V87.8036H95.2381H95.2561Z" fill="#2E3192"/>
<path d="M104.134 87.8036H102.771L102.233 86.3837H99.7399L99.2198 87.8036H97.8926L100.314 81.5666H101.641L104.134 87.8036ZM101.82 85.3412L100.96 83.0225L100.117 85.3412H101.82Z" fill="#2E3192"/>
<path d="M104.834 87.8036V81.6205H106.089V86.7432H109.21V87.7857H104.834V87.8036Z" fill="#2E3192"/>
</svg>
