<svg width="63" height="85" viewBox="0 0 63 85" fill="none" xmlns="http://www.w3.org/2000/svg">
<g clip-path="url(#clip0_16_207)">
<path d="M62.5028 57.6817C60.6873 51.6405 50.6309 52.2692 37.903 53.0648C33.17 53.3595 28.0286 53.6788 23.2169 53.6002C22.8332 49.2141 19.153 45.776 14.6611 45.776C11.5124 45.776 8.76211 47.4754 7.26644 49.9951C6.07581 49.0864 5.17054 47.9764 4.62935 46.6061C3.7044 44.2682 3.71916 42.3379 4.65887 40.7122C7.87652 35.167 21.1997 33.2269 30.9265 31.8124C36.0285 31.0707 40.4368 30.4273 43.0985 29.3959C46.2423 28.1778 47.1377 26.1788 47.3345 24.72C47.7872 21.4047 44.9582 17.6866 42.1883 14.9067C43.9053 13.3399 44.9877 11.0904 44.9877 8.58055C44.9877 3.84086 41.1403 0 36.3926 0C31.6448 0 27.7974 3.84086 27.7974 8.58055C27.7974 13.3202 31.6448 17.1611 36.3926 17.1611C37.1404 17.1611 37.8587 17.058 38.5475 16.8762C41.2387 19.4204 43.6741 22.4411 43.433 24.1896C43.4035 24.4155 43.31 25.0933 41.6717 25.7318C39.4282 26.6012 35.0199 27.2446 30.3558 27.9224C19.2465 29.5383 5.42146 31.5521 1.24934 38.7426C-0.315206 41.4391 -0.413605 44.5678 0.959062 48.0452C1.99225 50.6582 3.76836 52.5835 6.07581 53.9931C6.07089 54.1159 6.05613 54.2338 6.05613 54.3566C6.05613 59.0963 9.90354 62.9371 14.6513 62.9371C18.2724 62.9371 21.3621 60.6974 22.6315 57.5393C27.6547 57.6424 33.0126 57.3084 38.1441 56.9892C46.9065 56.4391 57.814 55.7613 58.7292 58.8114C59.8657 62.6031 57.8042 66.2525 55.8707 68.6493C52.8744 72.3625 48.4711 75.2407 44.9877 76.4637C44.9877 76.4489 44.9877 76.4342 44.9877 76.4194C44.9877 71.6798 41.1403 67.8389 36.3926 67.8389C31.6448 67.8389 27.7974 71.6798 27.7974 76.4194C27.7974 81.1591 31.6448 85 36.3926 85C39.5167 85 42.2375 83.335 43.743 80.8497C48.658 79.9804 54.9506 76.0511 58.9358 71.1149C62.5618 66.6257 63.7918 61.9794 62.5028 57.6817Z" fill="#5090D3"/>
</g>
<defs>
<clipPath id="clip0_16_207">
<rect width="63" height="85" fill="white"/>
</clipPath>
</defs>
</svg>
