<svg width="80" height="86" viewBox="0 0 80 86" fill="none" xmlns="http://www.w3.org/2000/svg">
<path d="M15.2997 9.2599C15.2997 9.54972 15.2997 9.77076 15.2997 9.99292C15.2997 13.0378 15.2996 16.0826 15.3008 19.1275C15.302 22.4475 17.8635 24.9837 21.2183 24.986C24.5341 24.9882 27.1228 22.4745 27.1477 19.1827C27.1714 16.1007 27.1524 13.0175 27.1524 9.9354C27.1524 9.73241 27.1524 9.52942 27.1524 9.28922C35.6196 9.28922 44.0334 9.28922 52.5278 9.28922C52.5278 9.50349 52.5278 9.70309 52.5278 9.9027C52.5278 12.9848 52.5183 16.0679 52.5325 19.15C52.5443 21.9107 54.2982 24.1323 56.9638 24.8033C60.6574 25.7325 64.3403 23.0835 64.3723 19.4443C64.3995 16.2687 64.3806 13.0919 64.3806 9.9151C64.3806 9.71437 64.3806 9.51251 64.3806 9.26103C67.7425 9.29373 71.0986 8.85505 74.1314 10.6008C77.7527 12.6848 79.6569 15.742 79.664 19.7725C79.6889 34.452 79.6758 49.1305 79.6735 63.81C79.6723 67.6442 79.7848 71.483 79.6202 75.3105C79.3822 80.8465 74.6003 85.1183 68.7811 85.1228C49.4985 85.1386 30.216 85.1386 10.9323 85.1217C4.77318 85.116 0.0232971 80.498 0.00790237 74.556C-0.00749241 68.6547 0.00434973 62.7522 0.00434973 56.8508C0.00434973 44.5587 0.00434973 32.2665 0.00434973 19.9744C0.00434973 15.8977 1.81264 12.7716 5.47068 10.6504C7.01608 9.75384 8.7249 9.30162 10.5356 9.26779C12.094 9.23622 13.6524 9.2599 15.2997 9.2599ZM74.7791 32.0444C51.4466 32.0444 28.1945 32.0444 4.8987 32.0444C4.8987 32.2541 4.8987 32.421 4.8987 32.5868C4.8987 45.515 4.89278 58.4443 4.91291 71.3725C4.9141 72.1901 5.01949 73.0325 5.24449 73.8196C6.43818 78.0091 10.1578 80.6277 14.8793 80.6288C31.5139 80.6345 48.1497 80.6322 64.7844 80.6254C65.4523 80.6254 66.1308 80.5871 66.7881 80.4788C71.4894 79.7018 74.7744 75.9443 74.7768 71.3285C74.7851 58.4747 74.7791 45.621 74.7791 32.7684C74.7791 32.5462 74.7791 32.324 74.7791 32.0444Z" fill="#5090D3"/>
<path d="M25.3902 11.7539C25.3902 14.2913 25.4056 16.8287 25.3843 19.3661C25.3677 21.3069 23.9585 22.9003 22.0093 23.2454C19.9961 23.6018 18.0884 22.6218 17.3459 20.7904C17.1516 20.3122 17.0581 19.7675 17.0557 19.2521C17.0344 14.2338 17.0297 9.21656 17.0486 4.1982C17.0557 2.07583 18.5241 0.494762 20.6889 0.190277C22.6417 -0.0848865 24.598 1.08907 25.1818 2.92613C25.3227 3.3682 25.3796 3.84861 25.3831 4.3121C25.3997 6.79309 25.3902 9.27295 25.3902 11.7539Z" fill="#5090D3"/>
<path d="M54.2886 11.7599C54.2886 9.22257 54.2649 6.6852 54.2969 4.14896C54.3182 2.4258 55.1791 1.14922 56.8488 0.479352C58.4677 -0.170216 59.9917 0.108331 61.3039 1.22703C62.2039 1.99388 62.6314 2.99304 62.6337 4.13768C62.6408 9.21243 62.6515 14.286 62.6314 19.3608C62.6219 21.5813 60.7875 23.3112 58.4996 23.3326C56.2011 23.354 54.3276 21.6185 54.298 19.3721C54.2625 16.8347 54.2886 14.2973 54.2886 11.7599Z" fill="#5090D3"/>
<path d="M23.004 40.2468C23.004 41.4309 23.0099 42.6139 23.0028 43.798C22.9945 44.9968 22.1206 45.8944 20.8677 45.9068C18.3027 45.9317 15.7377 45.9305 13.1738 45.9035C12.005 45.8911 11.0991 45.0475 11.0837 43.93C11.0494 41.4693 11.0517 39.0075 11.0813 36.5468C11.0944 35.4112 12.0121 34.5575 13.2129 34.5451C15.7578 34.5203 18.3027 34.5191 20.8475 34.5439C22.1087 34.5563 22.985 35.4314 23.0028 36.6392C23.0206 37.8414 23.0064 39.0447 23.0064 40.2468C23.0052 40.2468 23.0052 40.2468 23.004 40.2468Z" fill="#5090D3"/>
<path d="M68.6105 40.2575C68.6105 41.4033 68.6188 42.549 68.6081 43.6948C68.5939 45.0718 67.7188 45.9085 66.2788 45.9142C63.8523 45.9232 61.4259 45.9232 58.9994 45.9142C57.5571 45.9085 56.6784 45.0616 56.676 43.6926C56.6713 41.3819 56.6701 39.0712 56.676 36.7605C56.6796 35.3959 57.563 34.5445 59.0006 34.5388C61.4271 34.5287 63.8535 34.5276 66.28 34.5377C67.7141 34.5434 68.6058 35.4061 68.6105 36.7627C68.6152 37.9276 68.6117 39.0926 68.6105 40.2575Z" fill="#5090D3"/>
<path d="M11.0687 56.1717C11.0687 55.0068 11.0616 53.8418 11.0699 52.6769C11.0794 51.2999 11.9522 50.4575 13.3981 50.4508C15.8245 50.4406 18.251 50.4395 20.6786 50.4519C22.1293 50.4598 23.0021 51.2999 23.0056 52.6701C23.0104 54.9808 23.0104 57.2915 23.0056 59.6034C23.0032 60.9735 22.1269 61.8227 20.6846 61.8284C18.238 61.8385 15.7914 61.8385 13.3448 61.825C11.9747 61.8171 11.0901 60.9702 11.0723 59.6654C11.0569 58.5016 11.0687 57.3366 11.0687 56.1717Z" fill="#5090D3"/>
<path d="M62.6304 77.7384C61.4272 77.7384 60.2241 77.7463 59.0197 77.7361C57.5276 77.7226 56.6773 76.9016 56.675 75.4852C56.6726 73.1937 56.6714 70.901 56.675 68.6095C56.6773 67.2269 57.5359 66.3789 58.9783 66.371C61.4047 66.3574 63.8312 66.3563 66.2576 66.3698C67.7426 66.3777 68.6059 67.2168 68.6095 68.6264C68.6154 70.8999 68.6142 73.1723 68.6095 75.4457C68.6071 76.9231 67.745 77.7328 66.1807 77.7373C64.9976 77.7418 63.8134 77.7384 62.6304 77.7384Z" fill="#5090D3"/>
<path d="M68.6093 56.1687C68.6093 57.3336 68.6176 58.4985 68.6069 59.6635C68.5951 60.9412 67.7318 61.8106 66.3996 61.823C63.8938 61.8456 61.388 61.8433 58.8833 61.823C57.5547 61.8118 56.6783 60.9367 56.6748 59.6668C56.6689 57.3189 56.6677 54.9699 56.676 52.622C56.6807 51.3262 57.5665 50.4635 58.9378 50.4545C61.4033 50.4376 63.8701 50.4398 66.3356 50.4534C67.7022 50.4613 68.5939 51.3228 68.6069 52.6197C68.6188 53.8004 68.6093 54.9845 68.6093 56.1687Z" fill="#5090D3"/>
<path d="M16.9835 77.7364C15.7804 77.7364 14.5772 77.7455 13.3741 77.7342C11.953 77.7218 11.0779 76.8963 11.0719 75.5532C11.0625 73.2425 11.0613 70.9318 11.0719 68.6211C11.0779 67.2001 11.9435 66.3746 13.4273 66.3701C15.8337 66.3611 18.24 66.3589 20.6475 66.3656C22.1266 66.3701 23.0017 67.2125 23.0053 68.6143C23.01 70.9058 23.01 73.1974 23.0065 75.49C23.0041 76.9076 22.1503 77.7218 20.6546 77.7364C20.0436 77.7421 19.4313 77.7353 18.8203 77.7353C18.2068 77.7364 17.5946 77.7364 16.9835 77.7364Z" fill="#5090D3"/>
<path d="M45.7983 56.1448C45.7983 57.3098 45.8031 58.4736 45.7972 59.6385C45.7912 60.9512 44.941 61.8105 43.5637 61.8229C41.0781 61.8444 38.5936 61.8432 36.1079 61.8241C34.7579 61.8139 33.8875 60.9692 33.8816 59.6893C33.8698 57.3222 33.8709 54.9562 33.884 52.5891C33.8911 51.3126 34.7638 50.4679 36.1138 50.4577C38.5995 50.4374 41.084 50.4386 43.5697 50.4544C44.9007 50.4634 45.7794 51.3238 45.7936 52.5959C45.8078 53.7778 45.7983 54.9619 45.7983 56.1448Z" fill="#5090D3"/>
<path d="M39.8401 45.916C38.6168 45.916 37.3947 45.925 36.1714 45.9137C34.7551 45.9013 33.8894 45.0758 33.8835 43.7237C33.874 41.413 33.874 39.1023 33.8835 36.7927C33.8894 35.3729 34.7527 34.544 36.2294 34.5395C38.6358 34.5316 41.0421 34.5316 43.4484 34.5384C44.9216 34.5429 45.7991 35.3808 45.8014 36.7904C45.8062 39.082 45.8038 41.3735 45.7943 43.665C45.7884 45.1164 44.9334 45.9103 43.3904 45.9148C42.2073 45.9182 41.0231 45.916 39.8401 45.916Z" fill="#5090D3"/>
<path d="M33.8798 72.0739C33.8787 70.91 33.8739 69.7451 33.881 68.5813C33.8893 67.2089 34.7609 66.3777 36.2139 66.3721C38.6202 66.3631 41.0254 66.3608 43.4317 66.3687C44.9475 66.3744 45.8013 67.2145 45.799 68.6614C45.7966 70.9146 45.8001 73.1689 45.7966 75.4221C45.7942 76.9546 44.97 77.735 43.3476 77.7373C41.0005 77.7407 38.6546 77.7395 36.3075 77.7361C34.6934 77.7339 33.8846 76.9513 33.881 75.3984C33.8787 74.2898 33.881 73.1813 33.8798 72.0739Z" fill="#5090D3"/>
</svg>
