<svg width="65" height="85" viewBox="0 0 65 85" fill="none" xmlns="http://www.w3.org/2000/svg">
<g clip-path="url(#clip0_16_215)">
<path d="M0.0941669 41.8043C0.0941669 29.9733 0.0919766 18.1401 0.0963572 6.30912C0.0963572 3.78194 0.913347 1.66714 3.32708 0.538072C4.03018 0.209495 4.86688 0.0264626 5.64225 0.0242574C17.9781 -0.00661564 30.314 0.00661564 42.6499 0C44.4 0 45.8763 0.712284 47.0591 1.90751C52.5962 7.50434 58.0983 13.1365 63.5872 18.7818C64.5597 19.7808 65.0022 21.0069 65 22.4711C64.9737 40.6223 64.9868 58.7734 64.9868 76.9267C64.9868 80.4705 62.9367 82.5434 59.4344 82.5478C58.7773 82.5478 58.1202 82.5302 57.4631 82.5522C56.8301 82.5743 56.0153 82.2633 55.8861 83.3527C55.8729 83.4585 55.6057 83.5732 55.437 83.6129C53.7987 84.0121 52.1406 84.3473 50.4891 83.7496C50.016 83.5776 49.6524 83.1167 49.2121 82.8301C48.9909 82.6867 48.7062 82.561 48.4499 82.5588C45.5674 82.5412 42.6828 82.5412 39.8003 82.561C39.4499 82.5632 39.0841 82.6757 38.7512 82.8058C37.9035 83.141 37.0252 83.4321 36.2432 83.8908C33.582 85.4499 30.9777 85.3109 28.3778 83.7827C26.5905 82.7308 24.6674 82.4883 22.6107 82.5169C16.8085 82.6007 11.0064 82.55 5.202 82.5456C2.06765 82.5434 -0.0022073 80.455 -0.00439762 77.2994C-0.00658794 65.4684 -0.00439762 53.6352 -0.00439762 41.8043C0.0328379 41.8043 0.0635024 41.8043 0.0941669 41.8043ZM55.1326 78.7173C56.6045 78.7173 58.0567 78.7262 59.5088 78.7151C60.8209 78.7063 61.1888 78.3358 61.1888 77.0039C61.1866 58.8858 61.1844 40.7678 61.1779 22.6498C61.1779 21.3178 60.7486 20.9098 59.3906 20.9121C56.2518 20.9187 53.1131 20.9341 49.9722 20.9429C46.4742 20.9517 44.3036 18.7686 44.3168 15.2424C44.3299 12.0074 44.3036 8.77234 44.4088 5.5417C44.4482 4.33545 43.7363 3.99585 42.8471 3.86354C42.5251 3.81502 42.1922 3.8481 41.8636 3.8481C32.4452 3.8481 23.029 3.8481 13.6106 3.8481C11.0545 3.8481 8.50062 3.84369 5.94452 3.8503C4.58214 3.85471 4.02141 4.38838 3.92504 5.74238C3.90314 6.03567 3.91409 6.33117 3.91409 6.62446C3.87466 30.0725 3.83524 53.5183 3.79581 76.9664C3.79362 78.4483 4.0477 78.7151 5.49112 78.7173C9.28695 78.7217 13.0828 78.7195 16.8808 78.7173C17.1458 78.7173 17.4109 78.6776 17.3605 78.6821C17.1633 76.8275 16.9772 75.0721 16.7779 73.1822C14.5065 72.4038 12.0949 71.5813 9.68559 70.7521C8.29254 70.2736 7.42518 69.1974 7.42737 67.9691C7.42956 66.818 8.17865 65.9227 9.62645 65.4067C16.5303 62.9478 23.4386 60.4979 30.3425 58.0368C31.7027 57.5517 33.041 57.5473 34.4121 58.0104C41.1496 60.2884 47.8958 62.5377 54.6288 64.8289C55.3034 65.0582 55.978 65.4199 56.5234 65.8764C57.5485 66.7342 57.7325 68.2117 56.8235 69.107C56.0898 69.8281 56.0832 70.6264 55.9956 71.4931C55.7481 73.8769 56.2781 76.3556 55.1326 78.7173ZM40.7071 71.5305C40.6852 71.4798 40.6633 71.4291 40.6392 71.3784C38.0305 71.138 35.4241 70.858 32.8132 70.6661C30.6995 70.5095 29.8825 69.8634 29.4138 67.7596C28.8312 65.1376 30.866 62.9501 33.4769 63.3448C34.5545 63.508 35.6497 63.5587 36.7361 63.6557C37.6275 63.7351 38.5212 63.8101 39.4148 63.8851C37.4326 63.0537 35.4482 62.3282 33.4221 61.7394C32.7782 61.5519 31.9699 61.5475 31.3369 61.7636C26.9607 63.2588 22.6107 64.8333 18.2541 66.3836C16.7735 66.9106 15.2928 67.4355 13.5756 68.0463C19.6888 70.1479 25.5348 72.1767 31.3983 74.1459C31.9853 74.3444 32.7475 74.3598 33.3323 74.1658C35.8096 73.3498 38.2518 72.4214 40.7071 71.5305ZM54.2674 73.6145C54.2674 72.2516 54.2543 70.7896 54.2718 69.3275C54.2871 68.097 53.5818 67.2039 52.3531 67.087C45.9288 66.474 39.5024 65.8764 33.076 65.292C31.8736 65.1817 31.1924 65.9491 31.3282 67.1664C31.464 68.3903 31.8144 68.6329 33.5579 68.7784C38.9724 69.2349 44.3825 69.7134 49.797 70.1523C50.5964 70.2162 50.879 70.5448 50.822 71.3321C50.7673 72.1149 50.8089 72.9044 50.8089 73.6123C51.9347 73.6145 52.9269 73.6145 54.2674 73.6145ZM20.8584 74.7413C20.5759 75.7182 20.8606 76.1527 21.6535 76.4923C24.8733 77.8683 28.0712 79.2995 31.2559 80.755C32.0553 81.121 32.7519 81.1122 33.5491 80.7594C36.7536 79.348 39.9624 77.9433 43.2041 76.6224C44.2511 76.1946 44.4613 75.5926 44.1153 74.5517C43.7298 74.6708 43.3837 74.7634 43.0464 74.8847C40.6107 75.7557 38.1379 76.5408 35.7504 77.5309C33.4878 78.4704 31.3457 78.4351 29.0787 77.5662C26.4021 76.5408 23.6533 75.6918 20.8584 74.7413ZM48.1192 8.91789C48.1192 11.1915 48.1279 13.4231 48.1148 15.657C48.1104 16.5215 48.6339 17.0463 49.3501 17.0706C51.65 17.1544 53.9542 17.1014 56.4862 17.1014C53.595 14.2744 50.8943 11.6325 48.1192 8.91789ZM52.5327 82.4C54.0987 82.4 54.1557 82.3361 53.8819 80.8211C53.8293 80.5344 53.7483 80.2522 53.6935 79.9677C53.5205 79.0459 53.273 78.1749 53.9498 77.2641C54.401 76.6555 54.1535 75.7601 53.4833 75.4602C52.8765 75.189 52.007 75.1339 51.3893 75.361C50.6205 75.6455 50.3927 76.6709 50.8242 77.2354C51.7595 78.4593 51.2119 79.6876 51.1396 80.9071C51.0542 82.3626 51.0301 82.4 52.5327 82.4ZM47.7819 78.6379C48.209 78.6379 48.9252 78.6379 49.694 78.6379C48.0929 76.8253 49.4531 74.6531 48.6208 72.7236C48.3426 73.0543 48.106 73.427 48.0754 73.8151C47.9418 75.4205 47.8739 77.0303 47.7819 78.6379Z" fill="#5090D3"/>
<path d="M47.7819 25.6974C47.7819 26.8838 47.7819 27.9732 47.7819 29.1309C37.61 29.1309 27.4885 29.1309 17.286 29.1309C17.286 27.9908 17.286 26.8794 17.286 25.6974C27.4469 25.6974 37.564 25.6974 47.7819 25.6974Z" fill="#5090D3"/>
<path d="M47.8235 36.2383C47.8235 37.3718 47.8235 38.4611 47.8235 39.6233C37.667 39.6233 27.5455 39.6233 17.3495 39.6233C17.3495 38.5074 17.3495 37.4225 17.3495 36.2383C27.4579 36.2383 37.5772 36.2383 47.8235 36.2383Z" fill="#5090D3"/>
<path d="M17.3495 49.8202C17.3495 48.6228 17.3495 47.5378 17.3495 46.3933C27.5126 46.3933 37.6035 46.3933 47.7819 46.3933C47.7819 47.5202 47.7819 48.6316 47.7819 49.8202C37.6604 49.8202 27.5433 49.8202 17.3495 49.8202Z" fill="#5090D3"/>
</g>
<defs>
<clipPath id="clip0_16_215">
<rect width="65" height="85" fill="white"/>
</clipPath>
</defs>
</svg>
