<svg width="64" height="65" viewBox="0 0 64 65" fill="none" xmlns="http://www.w3.org/2000/svg">
<rect x="-1" y="1" width="21" height="21" rx="1" transform="matrix(-1 0 0 1 21 0)" fill="white" stroke="#2D2D2D" stroke-width="2"/>
<rect x="-1" y="1" width="21" height="21" rx="1" transform="matrix(-1 0 0 1 21 21)" fill="white" stroke="#2D2D2D" stroke-width="2"/>
<rect x="-1" y="1" width="21" height="21" rx="1" transform="matrix(-1 0 0 1 21 42)" fill="white" stroke="#2D2D2D" stroke-width="2"/>
<rect x="-1" y="1" width="20" height="21" rx="1" transform="matrix(-1 0 0 1 41 0)" fill="white" stroke="#2D2D2D" stroke-width="2"/>
<rect x="-1" y="1" width="20" height="21" rx="1" transform="matrix(-1 0 0 1 41 21)" fill="white" stroke="#2D2D2D" stroke-width="2"/>
<rect x="-1" y="1" width="20" height="21" rx="1" transform="matrix(-1 0 0 1 41 42)" fill="white" stroke="#2D2D2D" stroke-width="2"/>
<rect x="-1" y="1" width="21" height="21" rx="1" transform="matrix(-1 0 0 1 62 0)" fill="white" stroke="#2D2D2D" stroke-width="2"/>
<rect x="-1" y="1" width="21" height="21" rx="1" transform="matrix(-1 0 0 1 62 21)" fill="white" stroke="#2D2D2D" stroke-width="2"/>
<rect x="-1" y="1" width="21" height="21" rx="1" transform="matrix(-1 0 0 1 62 42)" fill="white" stroke="#2D2D2D" stroke-width="2"/>
</svg>
