<svg width="68" height="68" viewBox="0 0 68 68" fill="none" xmlns="http://www.w3.org/2000/svg">
<circle cx="12.5" cy="8.5" r="7.5" fill="white" stroke="#2D2D2D" stroke-width="2"/>
<circle cx="59.25" cy="31.5714" r="7.5" fill="white" stroke="#2D2D2D" stroke-width="2"/>
<circle cx="32.5356" cy="59.5" r="7.5" fill="white" stroke="#2D2D2D" stroke-width="2"/>
<path d="M12.5 16.8373V16.8373C12.5 25.3984 19.4211 32.3485 27.982 32.3843L51.3572 32.4822" stroke="#2D2D2D" stroke-width="2"/>
<path d="M40.4285 60.1072H43.6239C52.4604 60.1072 59.6239 52.9438 59.6239 44.1072V39.1608" stroke="#2D2D2D" stroke-width="2"/>
<path d="M9.5 36C14.1944 36 18 39.8056 18 44.5C18 45.646 17.6357 47.3025 16.9902 49.2041C16.3522 51.0839 15.4675 53.1236 14.4883 55.0059C13.5065 56.893 12.447 58.5886 11.4717 59.7969C10.9825 60.403 10.538 60.8571 10.1582 61.1504C9.75427 61.4623 9.54332 61.5 9.5 61.5C9.45668 61.5 9.24573 61.4623 8.8418 61.1504C8.46199 60.8571 8.01755 60.403 7.52832 59.7969C6.55303 58.5886 5.49352 56.893 4.51172 55.0059C3.53245 53.1236 2.6478 51.0839 2.00977 49.2041C1.36433 47.3025 1 45.646 1 44.5C1 39.8056 4.80558 36 9.5 36Z" fill="#FFBDBD" stroke="#2D2D2D" stroke-width="2"/>
<circle cx="9.5" cy="44.5" r="2.5" fill="#2D2D2D"/>
</svg>
