<svg width="1153" height="618" viewBox="0 0 1153 618" fill="none" xmlns="http://www.w3.org/2000/svg">
<path opacity="0.25" d="M1152.99 110.212V107.702H980.852V0H978.579V107.702H894.21V0H891.937V107.702H807.579V0H805.306V107.702H720.937V0H718.664V107.702H634.295V0H632.022V107.702H547.653V0H545.38V107.702H461.022V0H458.749V107.702H374.38V0H372.107V107.702H287.738V0H285.465V107.702H201.096V0H198.823V107.702H114.465V0H112.192V107.702H27.8226V0H25.5498V107.702H-58.8195V0H-61.0924V107.702H-380V110.212H-61.0583V208.69H-380V211.2H-61.0583V309.678H-380V312.188H-61.0583V410.666H-380V413.176H-61.0583V511.653H-380V514.163H-61.0583V612.641H-380V615.151H-61.0583V706.915H-58.7854V615.151H25.5839V706.915H27.8568V615.151H112.226V706.915H114.499V615.151H198.857V706.915H201.13V615.151H285.499V706.915H287.772V615.151H372.141V706.915H374.414V615.151H458.783V706.915H461.056V615.151H545.414V706.915H547.687V615.151H632.056V706.915H634.329V615.151H718.698V706.915H720.971V615.151H805.306V706.915H807.579V615.151H891.948V706.915H894.221V615.151H978.591V706.915H980.864V615.151H1153V612.641H980.864V514.163H1153V511.653H980.864V413.176H1153V410.666H980.864V312.188H1153V309.678H980.864V211.2H1153V208.69H980.864V110.212H1152.99ZM891.937 110.212V208.69H807.579V110.212H891.937ZM201.118 312.2H285.488V410.678H201.118V312.2ZM198.845 410.678H114.488V312.2H198.845V410.678ZM287.76 312.2H372.13V410.678H287.76V312.2ZM374.391 312.2H458.76V410.678H374.391V312.2ZM461.033 312.2H545.391V410.678H461.033V312.2ZM547.664 312.2H632.033V410.678H547.664V312.2ZM634.306 312.2H718.676V410.678H634.306V312.2ZM720.937 312.2H805.306V410.678H720.937V312.2ZM720.937 309.69V211.212H805.306V309.69H720.937ZM718.664 309.69H634.295V211.212H718.664V309.69ZM632.033 309.69H547.664V211.212H632.033V309.69ZM545.391 309.69H461.033V211.212H545.391V309.69ZM458.76 309.69H374.391V211.212H458.76V309.69ZM372.118 309.69H287.749V211.212H372.118V309.69ZM285.488 309.69H201.118V211.212H285.488V309.69ZM198.845 309.69H114.488V211.212H198.845V309.69ZM112.215 309.69H27.8454V211.212H112.215V309.69ZM112.215 312.2V410.678H27.8454V312.2H112.215ZM112.215 413.188V511.666H27.8454V413.188H112.215ZM114.488 413.188H198.845V511.666H114.488V413.188ZM201.118 413.188H285.488V511.666H201.118V413.188ZM287.76 413.188H372.13V511.666H287.76V413.188ZM374.391 413.188H458.76V511.666H374.391V413.188ZM461.033 413.188H545.391V511.666H461.033V413.188ZM547.664 413.188H632.033V511.666H547.664V413.188ZM634.306 413.188H718.676V511.666H634.306V413.188ZM720.937 413.188H805.306V511.666H720.937V413.188ZM807.579 413.188H891.948V511.666H807.579V413.188ZM807.579 410.678V312.2H891.948V410.678H807.579ZM807.579 309.69V211.212H891.948V309.69H807.579ZM805.306 110.212V208.69H720.937V110.212H805.306ZM718.664 110.212V208.69H634.295V110.212H718.664ZM632.033 110.212V208.69H547.664V110.212H632.033ZM545.391 110.212V208.69H461.033V110.212H545.391ZM458.76 110.212V208.69H374.391V110.212H458.76ZM372.118 110.212V208.69H287.749V110.212H372.118ZM285.488 110.212V208.69H201.118V110.212H285.488ZM198.845 110.212V208.69H114.488V110.212H198.845ZM112.215 110.212V208.69H27.8454V110.212H112.215ZM-58.7854 110.212H25.5839V208.69H-58.7854V110.212ZM-58.7854 211.2H25.5839V309.678H-58.7854V211.2ZM-58.7854 312.2H25.5839V410.678H-58.7854V312.2ZM-58.7854 413.188H25.5839V511.666H-58.7854V413.188ZM-58.7854 612.654V514.176H25.5839V612.654H-58.7854ZM27.8454 612.654V514.176H112.215V612.654H27.8454ZM114.488 612.654V514.176H198.845V612.654H114.488ZM201.118 612.654V514.176H285.488V612.654H201.118ZM287.76 612.654V514.176H372.13V612.654H287.76ZM374.391 612.654V514.176H458.76V612.654H374.391ZM461.033 612.654V514.176H545.391V612.654H461.033ZM547.664 612.654V514.176H632.033V612.654H547.664ZM634.306 612.654V514.176H718.676V612.654H634.306ZM720.937 612.654V514.176H805.306V612.654H720.937ZM807.579 612.654V514.176H891.948V612.654H807.579ZM978.579 612.654H894.21V514.176H978.579V612.654ZM978.579 511.666H894.21V413.188H978.579V511.666ZM978.579 410.678H894.21V312.2H978.579V410.678ZM978.579 309.69H894.21V211.212H978.579V309.69ZM978.579 208.69H894.21V110.212H978.579V208.69Z" fill="url(#paint0_linear_164_5)"/>
<defs>
<linearGradient id="paint0_linear_164_5" x1="386.5" y1="0" x2="-73.8526" y2="627.997" gradientUnits="userSpaceOnUse">
<stop stop-color="#5FB0E9"/>
<stop offset="0.509615" stop-color="#8B4EA7"/>
<stop offset="1" stop-color="#16D4FF"/>
</linearGradient>
</defs>
</svg>
